<?xml version="1.0" encoding="UTF-8" standalone="no"?>
<svg
   xmlnsDc="http://purl.org/dc/elements/1.1/"
   xmlnsCc="http://creativecommons.org/ns#"
   xmlnsRdf="http://www.w3.org/1999/02/22-rdf-syntax-ns#"
   xmlnsSvg="http://www.w3.org/2000/svg"
   xmlns="http://www.w3.org/2000/svg"
   id="svg893"
   version="1.1"
   viewBox="0 0 113.94291 127.25097"
   height="127.25097mm"
   width="113.94291mm">
  <defs
     id="defs887" />
  <metadata
     id="metadata890">
    <rdfRDF>
      <ccWork
         rdfAbout="">
        <dcFormat>image/svg+xml</dcFormat>
        <dcType
           rdfResource="http://purl.org/dc/dcmitype/StillImage" />
        <dcTitle></dcTitle>
      </ccWork>
    </rdfRDF>
  </metadata>
  <g
     transform="translate(-44.326164,-64.797135)"
     id="layer1">
    <g
       transform="translate(8.3154763,3.7797613)"
       id="layer1-9">
      <g
         transform="translate(-10.893512,28.569845)"
         id="g887">
        <path
           style="fill:#3573c2"
           d="m 112.18,71.098 c -0.049,-0.002 -0.098,0.002 -0.1451,0.009 -0.64067,0.10741 -0.53892,1.0665 0.10929,1.1005 0.0207,0.002 0.0433,0.002 0.0641,0.002 0.69721,-0.0207 0.66895,-1.0854 -0.0283,-1.1118 z m -4.0683,3.2392 c 0.91767,-0.34484 1.498,-0.56153 2.0784,-0.78012 -0.0132,-0.0905 -0.0264,-0.18089 -0.0396,-0.27323 -0.77823,-0.0339 -1.5546,-0.0697 -2.346,-0.10364 -0.0528,-1.0741 0.54269,-1.6262 1.2342,-1.9918 3.3617,-1.7715 6.7592,-2.4225 10.172,-0.10552 1.3379,0.90825 2.6682,1.8335 4.0042,2.7474 1.9088,1.3058 3.3353,4.6562 1.988,7.3471 -1.1852,2.3705 -3.1054,3.7367 -5.3289,4.8258 -3.7951,1.8617 -7.9595,2.4553 -12.016,3.4276 -2.5797,0.61806 -5.1443,1.3115 -7.6768,2.0935 -1.0646,0.32976 -2.0897,0.88753 -3.0263,1.4999 -2.9302,1.9145 -2.9207,4.726 -1.3812,7.0437 0.70663,1.0609 1.8448,1.8825 2.9094,2.6437 0.90448,0.64822 1.9842,1.0552 3.079,1.6186 -1.1928,0.6143 -2.3027,1.206 -3.4314,1.7543 -0.23743,0.11495 -0.57472,0.16771 -0.82157,0.098 -3.3598,-0.96667 -6.6291,-5.1292 -6.8816,-8.7076 -0.19597,-2.7945 0.78766,-5.1292 2.8114,-7.006 1.7769,-1.6488 3.8007,-2.9396 6.1034,-3.7498 2.8736,-1.01 5.7322,-2.0671 8.6284,-3.0036 2.5646,-0.83099 5.1857,-1.4868 7.756,-2.3008 1.1136,-0.35237 2.233,-0.79896 3.226,-1.4038 1.4114,-0.85926 1.434,-2.2216 0.1564,-3.2543 -0.73489,-0.59357 -1.4849,-0.91956 -2.5589,-0.71605 -2.1538,0.40891 -4.3208,0.13002 -6.4011,-0.58226 -0.67648,-0.22989 -1.2908,-0.64068 -2.2367,-1.1212"
           id="path823" />
        <path
           style="fill:#3573c2"
           d="m 109.68,66.597 c 0.24497,-0.94123 0.6143,-1.8698 0.71228,-2.8261 0.34107,-3.3255 0.53704,-6.6662 0.89695,-9.9899 0.14133,-1.3092 0.48993,-2.6096 0.86868,-3.8778 2.0502,-6.8308 7.1944,-10.405 13.882,-10.925 6.2259,-0.48427 12.478,-0.6614 18.717,-0.9742 4.2266,-0.21105 8.4513,-0.44471 12.591,-1.4189 1.0402,-0.24496 2.0747,-0.51065 3.4992,-0.86303 -0.4805,0.83477 -0.73489,1.4472 -1.1381,1.939 -1.1589,1.4208 -2.7323,2.2235 -4.4508,2.7549 -3.1732,0.98174 -6.4388,1.385 -9.7458,1.4528 -5.263,0.10929 -10.528,0.1564 -15.789,0.28077 -1.125,0.0264 -2.2574,0.20162 -3.3617,0.42586 -5.832,1.1796 -9.8646,4.5469 -11.798,10.178 -0.90638,2.6392 -1.3944,5.4199 -2.1274,8.1217 -0.4221,1.5591 -0.89884,3.1101 -1.4698,4.6191 -0.18844,0.49388 -0.39572,1.2945 -1.2983,1.0694 l 0.0113,0.0334"
           id="path825" />
        <path
           style="fill:#3573c2"
           d="m 97.693,66.673 c -1.0797,-0.37027 -1.3643,-1.385 -1.645,-2.2757 -0.52573,-1.6833 -0.87622,-3.4218 -1.3059,-5.1362 -0.45413,-1.8097 -0.81215,-3.6506 -1.3869,-5.4213 -2.3686,-7.3077 -7.2905,-11.206 -14.969,-11.638 -4.807,-0.26946 -9.6328,-0.24685 -14.449,-0.29207 -3.6519,-0.032 -7.266,-0.30715 -10.809,-1.2361 -1.7317,-0.45224 -3.356,-1.1287 -4.6939,-2.3592 -0.71228,-0.65575 -1.3473,-1.3737 -1.5301,-2.4553 2.167,0.44847 4.2002,1.0157 6.273,1.2644 3.4126,0.41078 6.8458,0.68778 10.277,0.89318 5.9866,0.35802 11.981,0.59357 17.969,0.93275 2.6381,0.14886 5.1141,0.94406 7.3979,2.2782 4.0683,2.378 6.1524,6.1373 7.0475,10.589 0.49181,2.4468 0.63691,4.9639 0.93087,7.4503 0.29208,2.4783 0.57472,4.9579 0.86115,7.4368 l 0.03205,-0.0311"
           id="path827" />
        <path
           style="fill:#2d9d40"
           d="m 94.981,72.048 c 0.33918,0.28077 0.52196,0.27323 0.80838,-0.0433 0.26758,-0.29396 0.14698,-0.78012 -0.23554,-0.88564 -0.08856,-0.0226 -0.17336,-0.0358 -0.26004,-0.032 -0.49558,0.0132 -0.69532,0.64445 -0.3128,0.96102 z m 4.7806,1.1721 h -2.4101 c -0.03013,0.1564 -0.02452,0.12436 -0.05464,0.28076 0.59168,0.24308 1.1834,0.48616 1.8843,0.77447 -1.076,0.97986 -2.2895,1.5376 -3.601,1.645 -1.7487,0.14133 -3.52,0.10176 -5.2781,0.0414 -1.0062,-0.0339 -2.8077,1.01 -2.9547,1.988 -0.06407,0.42774 0.07914,1.0232 0.35991,1.336 0.47674,0.5295 1.0778,1.0458 1.7298,1.3021 1.7826,0.6972 3.6085,1.2851 5.4363,1.8598 1.9654,0.61618 3.9515,1.1645 5.9263,1.7506 0.12814,0.0377 0.23178,0.15829 0.39383,0.27323 -1.743,0.85361 -3.5331,1.532 -5.1009,2.5514 -1.5056,0.97797 -2.8341,0.9987 -4.5149,0.50689 -2.5024,-0.72925 -4.741,-1.8712 -6.8326,-3.3541 -1.4114,-1.0006 -2.2895,-2.4138 -2.8209,-4.0457 -0.67083,-2.0652 0.42963,-4.9012 2.4647,-6.3408 1.2003,-0.84796 2.4346,-1.6526 3.6255,-2.5118 3.3899,-2.4449 6.8402,-1.9592 10.294,-0.20539 0.99117,0.505 1.1287,0.81026 1.4528,2.1482"
           id="path829" />
        <path
           style="fill:#3573c2"
           d="m 106.84,90.993 c 1.7713,-0.39194 3.5482,-0.76504 5.3139,-1.1871 0.68401,-0.16205 1.1984,-0.0414 1.7392,0.43717 3.5539,3.1487 4.057,8.3458 1.1344,12.096 -1.1381,1.4585 -2.5533,2.6136 -4.204,3.4069 -2.1199,1.0194 -4.3133,1.8862 -6.4633,2.8416 -1.3435,0.59546 -2.7512,1.1023 -3.9854,1.8787 -3.1657,1.9955 -3.4333,5.1932 -0.71228,7.7635 0.81403,0.7707 1.743,1.4189 2.7606,2.2348 -0.70663,0.48051 -1.3756,0.93464 -2.0784,1.4133 -2.0728,-0.96479 -3.8346,-2.2141 -4.888,-4.2925 -1.5904,-3.1337 -1.0081,-6.7271 1.6959,-8.962 1.304,-1.0797 2.8604,-1.8956 4.3943,-2.6419 1.8956,-0.92144 3.9213,-1.5734 5.8226,-2.4836 1.1815,-0.56719 2.2914,-1.3247 3.3353,-2.1274 1.0402,-0.79895 1.6092,-1.9559 1.8975,-3.2448 0.40137,-1.7977 -0.0283,-3.3617 -1.4698,-4.4979 -0.91391,-0.71982 -1.988,-1.2399 -3.0093,-1.8203 -0.41267,-0.23366 -0.87245,-0.38629 -1.3115,-0.57661 0.009,-0.0791 0.0189,-0.15828 0.0283,-0.23743"
           id="path831" />
        <path
           style="fill:#3573c2"
           d="M 88.878,51.126 C 85.5144,49.66 82.198,49.317 78.84,49.2454 74.2177,49.14364 69.5954,49.09276 64.975,48.97593 c -2.8642,-0.0735 -5.6775,-0.49369 -8.3948,-1.4491 -1.564,-0.54834 -2.9396,-1.3869 -3.9194,-2.7511 -0.35426,-0.49182 -0.57473,-1.0778 -0.91014,-1.7223 2.3799,0.32976 4.5413,0.76128 6.7215,0.90449 4.464,0.29584 8.9375,0.43905 13.407,0.63691 3.3918,0.15075 6.8006,0.26381 10.087,1.1721 1.6337,0.45225 3.2185,1.1871 4.7165,1.9955 1.1702,0.63125 1.9729,1.7053 2.1953,3.3636"
           id="path833" />
        <path
           style="fill:#3573c2"
           d="m 155.68,43.074 c -0.51066,1.8504 -1.6978,3.0338 -3.2335,3.7461 -1.4547,0.67648 -3.0206,1.2022 -4.5922,1.5169 -1.8693,0.3731 -3.7951,0.56154 -5.702,0.63503 -3.7838,0.14698 -7.5694,0.16959 -11.355,0.22612 -4.0796,0.0603 -8.1498,0.17147 -12.163,1.9258 0.14886,-1.2606 0.70097,-2.0803 1.4585,-2.787 1.2512,-1.1702 2.7813,-1.8335 4.3962,-2.3121 3.52,-1.042 7.1549,-1.2399 10.792,-1.4133 4.5658,-0.21859 9.1372,-0.35426 13.699,-0.64822 2.1858,-0.14132 4.3547,-0.56907 6.7007,-0.88941"
           id="path835" />
        <path
           style="fill:#2d9d40"
           d="m 103.7,44.924 c -3.4389,-0.0339 -6.1769,-2.787 -6.1825,-6.2202 -0.0057,-3.4653 2.8435,-6.2881 6.3182,-6.256 3.4502,0.0302 6.273,2.9434 6.1938,6.3898 -0.0791,3.4107 -2.8962,6.1204 -6.3295,6.0864"
           id="path837" />
        <path
           style="fill:#2d9d40"
           d="m 101.87,50.459 h 3.8365 c 0,0.55588 0.006,1.0345 0,1.512 -0.10741,8.2578 -0.21671,16.515 -0.32411,24.773 -0.0264,1.9126 -0.0905,3.8271 -0.0622,5.7397 0.0132,0.81969 -0.22047,1.2908 -1.0628,1.4547 -0.57284,0.11306 -1.1212,0.34672 -1.8881,0.59357 -0.0867,-0.7952 -0.22235,-1.4981 -0.23177,-2.2028 -0.12437,-10.223 -0.23178,-20.445 -0.3373,-30.668 -0.006,-0.38064 0.0414,-0.76316 0.0697,-1.2022"
           id="path839" />
        <path
           style="fill:#3573c2"
           d="m 145.3,50.372 c -0.54835,2.2508 -1.8184,3.6413 -3.6782,4.5207 -2.0747,0.98156 -4.2944,1.4086 -6.5726,1.4845 -3.2467,0.10778 -6.4935,0.18297 -9.7383,0.24157 -3.1129,0.0562 -6.1863,0.28378 -9.1881,1.897 0.19221,-1.8851 1.1532,-3.0468 2.4723,-3.965 1.694,-1.1798 3.6293,-1.763 5.6455,-2.0019 2.2932,-0.27153 4.6016,-0.41531 6.9042,-0.59884 3.7235,-0.2966 7.4507,-0.55287 11.17,-0.89017 0.91768,-0.0829 1.8146,-0.41079 2.9848,-0.68778"
           id="path841" />
        <path
           style="fill:#3573c2"
           d="m 91.461,58.563 c -2.917,-1.5838 -5.7887,-1.8696 -8.7094,-1.9343 -3.4936,-0.0774 -6.9872,-0.14076 -10.479,-0.26268 -2.1802,-0.0761 -4.2963,-0.51932 -6.2899,-1.4353 -1.8919,-0.86887 -3.1563,-2.2846 -3.714,-4.3022 0.12437,-0.0829 0.22047,-0.19409 0.277,-0.17713 4.1079,1.2079 8.3533,1.1947 12.57,1.4598 2.7474,0.17242 5.4985,0.34766 8.2327,0.64652 1.9164,0.20935 3.7555,0.78822 5.3968,1.8565 1.4076,0.91579 2.3875,2.1261 2.7153,4.1488"
           id="path843" />
        <path
           style="fill:#3573c2"
           d="m 114.8,65.114 c 0.30338,-2.2612 1.4472,-3.5115 3.0715,-4.3986 1.7656,-0.9629 3.7084,-1.2723 5.6719,-1.4248 2.7398,-0.21274 5.4929,-0.29113 8.2289,-0.55343 1.7958,-0.17223 3.5708,-0.56776 5.4759,-0.88301 -0.22613,1.6835 -1.1721,3.0112 -2.7191,3.91 -1.6017,0.93011 -3.3767,1.3219 -5.214,1.3931 -2.4534,0.0948 -4.9087,0.16469 -7.364,0.21255 -2.4252,0.0471 -4.807,0.26456 -7.1511,1.7442"
           id="path845" />
        <path
           style="fill:#3573c2"
           d="m 70.272,57.67 c 4.4376,1.5133 8.9902,1.1764 13.456,1.5925 2.0634,0.1922 4.106,0.4594 5.9583,1.4692 1.6187,0.88282 2.7681,2.1267 3.0055,4.3005 -3.78,-2.226 -7.8238,-1.486 -11.73,-1.7907 -1.7581,-0.13718 -3.5426,-0.14151 -5.2649,-0.46863 -2.5458,-0.48371 -4.5714,-1.7704 -5.3591,-4.452 -0.05088,-0.17336 -0.03769,-0.365 -0.06595,-0.65085"
           id="path847" />
        <path
           style="fill:#3573c2"
           d="m 100.04,135.2 c -3.0922,-1.564 -4.1964,-5.9715 -2.0766,-9.0298 0.90072,-1.2983 2.1877,-2.3762 3.4389,-3.3768 1.2606,-1.0062 2.721,-1.76 4.0495,-2.6871 0.92333,-0.64444 1.8504,-1.3172 2.6419,-2.1105 2.3969,-2.4063 2.1406,-5.3138 -0.58604,-7.3131 -0.51254,-0.3731 -1.0684,-0.68968 -1.7845,-1.1495 1.3624,-0.56341 2.6004,-1.0741 3.7838,-1.564 3.927,2.3573 4.8861,8.2402 0.74432,11.937 -0.9026,0.8065 -2.0068,1.4038 -3.0715,2.0068 -1.4095,0.79896 -2.883,1.4811 -4.3001,2.265 -0.7707,0.42775 -1.5226,0.91203 -2.2085,1.4623 -2.966,2.378 -3.3485,5.9922 -0.99681,8.9846 0.14132,0.17901 0.22235,0.40514 0.33164,0.60865 l 0.0339,-0.0339"
           id="path849" />
        <path
           style="fill:#2d9d40"
           d="m 95.085,43.604 c 1.9541,1.3096 3.9741,2.4365 6.3653,2.7945 3.8667,0.58226 7.3716,-0.19786 10.518,-2.5439 0.24308,-0.1809 0.56153,-0.26004 0.84419,-0.38629 l -0.0113,-0.0396 c -3.4747,6.9438 -12.472,7.9124 -16.999,1.8146 -0.34296,-0.45978 -0.55589,-1.0194 -0.82723,-1.532 0.03579,-0.0358 0.07161,-0.0716 0.10929,-0.10741"
           id="path851" />
        <path
           style="fill:#2d9d40"
           d="m 104.95,103.49 c -0.79519,0.31846 -1.4566,0.58227 -2.3064,0.92333 -0.0905,-4.317 -0.17524,-8.4211 -0.26192,-12.599 0.89129,-0.24496 1.6827,-0.46167 2.5684,-0.70474 v 12.38"
           id="path853" />
        <path
           style="fill:#2d9d40"
           d="m 102.93,120.36 v -10.14 c 0.47297,-0.1922 1.0496,-0.42587 1.7543,-0.71229 0.0358,0.48051 0.0905,0.84419 0.0848,1.2079 -0.0414,2.5005 -0.14886,5.0029 -0.12249,7.5016 0.0113,1.1777 -0.4202,1.841 -1.7166,2.1425"
           id="path855" />
        <path
           style="fill:#2d9d40"
           d="m 103.08,127.91 c -0.0189,-0.53892 0.0283,-1.0873 -0.0414,-1.6186 -0.12437,-0.96667 0.29396,-1.4773 1.4415,-1.694"
           id="path857" />
        <path
           style="fill:#2d9d40"
           d="m 107.41,135.17 c 0.85926,-0.95913 1.5508,-2.0012 1.792,-3.3033 0.47674,-2.5552 -0.25061,-4.643 -2.3309,-6.2353 -0.50124,-0.38252 -1.0044,-0.76316 -1.6168,-1.2305 0.65952,-0.33164 1.2154,-0.61053 1.7355,-0.87245 3.5087,2.3328 4.6374,6.1769 2.7606,9.4707 -0.53516,0.94029 -1.0665,2.0068 -2.3799,2.135 l 0.0396,0.0358"
           id="path859" />
        <path
           style="fill:#2d9d40"
           d="m 112.81,43.468 -0.032,-0.10741 0.0207,0.0678 z"
           id="path861" />
        <path
           style="fill:#3573c2"
           d="m 94.976,43.711 c -0.04524,-0.0923 -0.08856,-0.18466 -0.1319,-0.27511 0.07914,0.0546 0.16017,0.11117 0.23931,0.1677 -0.03579,0.0358 -0.07161,0.0716 -0.10741,0.10741"
           id="path863" />
        <path
           style="fill:#2d9d40"
           d="m 97.661,66.704 c 0.03958,0.0136 0.07914,0.0268 0.11871,0.0399 -0.02826,-0.0237 -0.05841,-0.0475 -0.08668,-0.071 l -0.03205,0.0311"
           id="path865" />
        <path
           style="fill:#2d9d40"
           d="m 109.67,66.563 c 0.0207,0.0322 0.0396,0.0644 0.0603,0.0967 -0.017,-0.0211 -0.032,-0.0422 -0.049,-0.0633 L 109.67,66.563"
           id="path867" />
        <path
           style="fill:#2d9d40"
           d="m 100,135.24 c 0.0603,0.0283 0.1206,0.0546 0.17901,0.0829 -0.0283,-0.002 -0.066,0.008 -0.081,-0.008 -0.0283,-0.0301 -0.0433,-0.0716 -0.0641,-0.10929 l -0.0339,0.0339"
           id="path869" />
        <path
           style="fill:#2d9d40"
           d="m 107.37,135.14 c -0.0132,0.0678 -0.0245,0.13567 -0.0377,0.20351 -0.006,-0.0245 -0.0226,-0.0584 -0.0132,-0.0735 0.0226,-0.0358 0.0584,-0.0622 0.0905,-0.0942 l -0.0396,-0.0358"
           id="path871" />
        <g
           style="fill:#3573c2"
           transform="matrix(0.2963,0,0,0.2963,22.446,-9.313)"
           aria-label="REMEEL"
           id="g885">
          <path
             d="m 175.54,568.74 q 0,0.45834 -0.16667,0.79167 -0.16667,0.29167 -0.79167,0.5 -0.625,0.20833 -1.8333,0.29167 -1.2083,0.0833 -3.2917,0.0833 -1.75,0 -2.7917,-0.0833 -1.0417,-0.0833 -1.6667,-0.29167 -0.58333,-0.25 -0.83333,-0.58333 -0.25,-0.375 -0.41667,-0.875 l -4.8333,-12.042 q -0.875,-2.0417 -1.7083,-3.625 -0.83333,-1.5833 -1.875,-2.625 -1,-1.0833 -2.3333,-1.625 -1.3333,-0.5417 -3.0833,-0.54167 h -3.4167 v 20.542 q 0,0.41667 -0.29167,0.75 -0.25,0.33333 -0.875,0.54167 -0.625,0.20833 -1.6667,0.33333 -1.0417,0.125 -2.6667,0.125 -1.5833,0 -2.6667,-0.125 -1.0417,-0.125 -1.6667,-0.33333 -0.625,-0.20834 -0.875,-0.54167 -0.25,-0.33333 -0.25,-0.75 v -48.958 q 0,-1.8333 0.91666,-2.625 0.95834,-0.83334 2.3333,-0.83334 h 13.958 q 2.125,0 3.5,0.0833 1.375,0.0833 2.5,0.20833 3.25,0.45833 5.8333,1.5833 2.625,1.125 4.4167,2.9583 1.8333,1.7917 2.7917,4.2917 0.95833,2.4583 0.95833,5.6667 0,2.7083 -0.70833,4.9583 -0.66667,2.2083 -2,3.9583 -1.3333,1.75 -3.2917,3.0417 -1.9583,1.2917 -4.4583,2.0833 1.2083,0.58333 2.25,1.4167 1.0833,0.83334 2,2.0417 0.95833,1.1667 1.7917,2.7083 0.83334,1.5 1.625,3.4167 l 4.5417,10.625 q 0.625,1.5833 0.83333,2.3333 0.20834,0.70834 0.20834,1.125 z m -14.125,-36.583 q 0,-2.6667 -1.2083,-4.5 -1.2083,-1.8333 -3.9583,-2.5833 -0.83333,-0.20834 -1.9167,-0.33334 -1.0417,-0.125 -2.9167,-0.125 h -4.9167 v 15.292 h 5.5833 q 2.3333,0 4.0833,-0.54167 1.75,-0.58333 2.9167,-1.5833 1.1667,-1.0417 1.75,-2.4583 0.58334,-1.4167 0.58334,-3.1667 z"
             id="path873" />
          <path
             d="m 215.5,565.86 q 0,1.2083 -0.125,2.0417 -0.0833,0.79167 -0.29167,1.2917 -0.20833,0.5 -0.54166,0.75 -0.29167,0.20833 -0.66667,0.20833 h -27.083 q -1.375,0 -2.3333,-0.79167 -0.91666,-0.83333 -0.91666,-2.6667 v -47 q 0,-1.8333 0.91666,-2.625 0.95834,-0.83334 2.3333,-0.83334 h 26.917 q 0.375,0 0.66667,0.20834 0.29167,0.20833 0.5,0.75 0.20833,0.5 0.29167,1.3333 0.125,0.79167 0.125,2.0417 0,1.1667 -0.125,2 -0.0833,0.79166 -0.29167,1.2917 -0.20833,0.5 -0.5,0.75 -0.29167,0.20834 -0.66667,0.20834 h -19.25 v 13.167 h 16.292 q 0.375,0 0.66667,0.25 0.33333,0.20834 0.54166,0.70834 0.20834,0.45833 0.29167,1.2917 0.125,0.79167 0.125,1.9583 0,1.2083 -0.125,2 -0.0833,0.79166 -0.29167,1.2917 -0.20833,0.45834 -0.54166,0.66667 -0.29167,0.20833 -0.66667,0.20833 h -16.292 v 15.208 h 19.417 q 0.375,0 0.66667,0.25 0.33333,0.20833 0.54166,0.70833 0.20834,0.5 0.29167,1.3333 0.125,0.79167 0.125,2 z"
             id="path875" />
          <path
             d="m 288.04,568.65 q 0,0.41667 -0.25,0.75 -0.20833,0.33333 -0.83333,0.54167 -0.58333,0.20833 -1.5833,0.33333 -0.99997,0.125 -2.5417,0.125 -1.5,0 -2.5,-0.125 -1,-0.125 -1.5833,-0.33333 -0.58334,-0.20834 -0.83334,-0.54167 -0.25,-0.33333 -0.25,-0.75 v -43.875 h -0.0833 l -15.625,43.833 q -0.16667,0.54167 -0.54167,0.91667 -0.375,0.33333 -1.0417,0.54167 -0.625,0.20833 -1.625,0.25 -1,0.0833 -2.4167,0.0833 -1.4167,0 -2.4167,-0.125 -1,-0.0833 -1.6667,-0.29167 -0.625,-0.25 -1,-0.58333 -0.375,-0.33333 -0.5,-0.79167 l -15.083,-43.833 h -0.0833 v 43.875 q 0,0.41667 -0.25,0.75 -0.20834,0.33333 -0.83334,0.54167 -0.625,0.20833 -1.625,0.33333 -0.95833,0.125 -2.5,0.125 -1.5,0 -2.5,-0.125 -1,-0.125 -1.625,-0.33333 -0.58333,-0.20834 -0.83333,-0.54167 -0.20833,-0.33333 -0.20833,-0.75 v -48.042 q 0,-2.125 1.125,-3.25 1.125,-1.125 3,-1.125 h 7.1667 q 1.9167,0 3.2917,0.33334 1.375,0.29166 2.375,1.0417 1,0.70834 1.6667,1.9167 0.66666,1.1667 1.1667,2.9167 l 11.667,32.125 h 0.16667 l 12.083,-32.042 q 0.54167,-1.75 1.1667,-2.9583 0.66667,-1.2083 1.5,-1.9583 0.875,-0.75 2.0417,-1.0417 1.1667,-0.33334 2.7083,-0.33334 h 7.375 q 1.125,0 1.9167,0.29167 0.83333,0.29167 1.3333,0.875 0.54167,0.54167 0.79167,1.375 0.29166,0.79167 0.29166,1.8333 z"
             id="path877" />
          <path
             d="m 331.83,565.86 q 0,1.2083 -0.125,2.0417 -0.0833,0.79167 -0.29166,1.2917 -0.20834,0.5 -0.54167,0.75 -0.29167,0.20833 -0.66667,0.20833 h -27.083 q -1.375,0 -2.3333,-0.79167 -0.91667,-0.83333 -0.91667,-2.6667 v -47 q 0,-1.8333 0.91667,-2.625 0.95833,-0.83334 2.3333,-0.83334 h 26.917 q 0.375,0 0.66666,0.20834 0.29167,0.20833 0.5,0.75 0.20834,0.5 0.29167,1.3333 0.125,0.79167 0.125,2.0417 0,1.1667 -0.125,2 -0.0833,0.79166 -0.29167,1.2917 -0.20833,0.5 -0.5,0.75 -0.29166,0.20834 -0.66666,0.20834 h -19.25 v 13.167 h 16.292 q 0.375,0 0.66667,0.25 0.33333,0.20834 0.54167,0.70834 0.20833,0.45833 0.29166,1.2917 0.125,0.79167 0.125,1.9583 0,1.2083 -0.125,2 -0.0833,0.79166 -0.29166,1.2917 -0.20834,0.45834 -0.54167,0.66667 -0.29167,0.20833 -0.66667,0.20833 h -16.292 v 15.208 h 19.417 q 0.375,0 0.66667,0.25 0.33333,0.20833 0.54167,0.70833 0.20833,0.5 0.29166,1.3333 0.125,0.79167 0.125,2 z"
             id="path879" />
          <path
             d="m 373.5,565.86 q 0,1.2083 -0.125,2.0417 -0.0833,0.79167 -0.29167,1.2917 -0.20833,0.5 -0.54166,0.75 -0.29167,0.20833 -0.66667,0.20833 h -27.083 q -1.375,0 -2.3333,-0.79167 -0.91666,-0.83333 -0.91666,-2.6667 v -47 q 0,-1.8333 0.91666,-2.625 0.95834,-0.83334 2.3333,-0.83334 h 26.917 q 0.375,0 0.66667,0.20834 0.29167,0.20833 0.5,0.75 0.20833,0.5 0.29167,1.3333 0.125,0.79167 0.125,2.0417 0,1.1667 -0.125,2 -0.0833,0.79166 -0.29167,1.2917 -0.20833,0.5 -0.5,0.75 -0.29167,0.20834 -0.66667,0.20834 h -19.25 v 13.167 h 16.292 q 0.375,0 0.66667,0.25 0.33333,0.20834 0.54166,0.70834 0.20834,0.45833 0.29167,1.2917 0.125,0.79167 0.125,1.9583 0,1.2083 -0.125,2 -0.0833,0.79166 -0.29167,1.2917 -0.20833,0.45834 -0.54166,0.66667 -0.29167,0.20833 -0.66667,0.20833 h -16.292 v 15.208 h 19.417 q 0.375,0 0.66667,0.25 0.33333,0.20833 0.54166,0.70833 0.20834,0.5 0.29167,1.3333 0.125,0.79167 0.125,2 z"
             id="path881" />
          <path
             d="m 412.83,565.57 q 0,1.25 -0.125,2.125 -0.0833,0.83333 -0.29167,1.4167 -0.20833,0.54167 -0.54166,0.79167 -0.29167,0.25 -0.70834,0.25 h -24.708 q -1.375,0 -2.3333,-0.79167 -0.91666,-0.83333 -0.91666,-2.6667 v -48.958 q 0,-0.41666 0.25,-0.75 0.29166,-0.33333 0.91666,-0.54166 0.625,-0.20834 1.6667,-0.33334 1.0833,-0.125 2.6667,-0.125 1.625,0 2.6667,0.125 1.0417,0.125 1.6667,0.33334 0.625,0.20833 0.875,0.54166 0.29167,0.33334 0.29167,0.75 v 43.375 h 16.958 q 0.41667,0 0.70834,0.25 0.33333,0.20834 0.54166,0.75 0.20834,0.5 0.29167,1.375 0.125,0.83334 0.125,2.0833 z"
             id="path883" />
        </g>
      </g>
    </g>
  </g>
</svg>
